<svg width="57" height="54" viewBox="0 0 57 54" fill="none" xmlns="http://www.w3.org/2000/svg">
<path fill-rule="evenodd" clip-rule="evenodd" d="M13.3434 53.5573C11.6809 54.4185 9.73715 53.023 10.055 51.1928L12.7485 35.666C12.8748 34.9403 12.6303 34.1986 12.0965 33.6843L0.686804 22.6871C-0.657911 21.3912 0.0837198 19.1344 1.94187 18.8672L17.7117 16.6024C18.4493 16.4947 19.089 16.0362 19.4191 15.3743L26.4687 1.24705C27.2999 -0.415683 29.7001 -0.415683 30.5313 1.24705L37.585 15.3743C37.915 16.0362 38.5548 16.4947 39.2924 16.6024L55.0581 18.8672C56.9163 19.1344 57.6579 21.3912 56.3132 22.6871L44.9035 33.6843C44.3697 34.1986 44.1252 34.9403 44.2515 35.666L46.945 51.1928C47.2629 53.023 45.3232 54.4185 43.6606 53.5573L29.5534 46.2245C28.8932 45.8816 28.1068 45.8816 27.4466 46.2245L13.3434 53.5573Z" fill="#FAD04F"/>
<path fill-rule="evenodd" clip-rule="evenodd" d="M13.3434 53.5573C11.6809 54.4185 9.73715 53.023 10.055 51.1928L12.7485 35.666C12.8748 34.9403 12.6303 34.1986 12.0965 33.6843L0.686804 22.6871C-0.657911 21.3912 0.0837198 19.1344 1.94187 18.8672L17.7117 16.6024C18.4493 16.4947 19.089 16.0362 19.4191 15.3743L26.4687 1.24705C27.2999 -0.415683 29.7001 -0.415683 30.5313 1.24705L37.585 15.3743C37.915 16.0362 38.5548 16.4947 39.2924 16.6024L55.0581 18.8672C56.9163 19.1344 57.6579 21.3912 56.3132 22.6871L44.9035 33.6843C44.3697 34.1986 44.1252 34.9403 44.2515 35.666L46.945 51.1928C47.2629 53.023 45.3232 54.4185 43.6606 53.5573L29.5534 46.2245C28.8932 45.8816 28.1068 45.8816 27.4466 46.2245L13.3434 53.5573Z" fill="url(#paint0_linear)" fill-opacity="0.6" style="mix-blend-mode:overlay"/>
<path fill-rule="evenodd" clip-rule="evenodd" d="M13.3434 53.5573C11.6809 54.4185 9.73715 53.023 10.055 51.1928L12.7485 35.666C12.8748 34.9403 12.6303 34.1986 12.0965 33.6843L0.686804 22.6871C-0.657911 21.3912 0.0837198 19.1344 1.94187 18.8672L17.7117 16.6024C18.4493 16.4947 19.089 16.0362 19.4191 15.3743L26.4687 1.24705C27.2999 -0.415683 29.7001 -0.415683 30.5313 1.24705L37.585 15.3743C37.915 16.0362 38.5548 16.4947 39.2924 16.6024L55.0581 18.8672C56.9163 19.1344 57.6579 21.3912 56.3132 22.6871L44.9035 33.6843C44.3697 34.1986 44.1252 34.9403 44.2515 35.666L46.945 51.1928C47.2629 53.023 45.3232 54.4185 43.6606 53.5573L29.5534 46.2245C28.8932 45.8816 28.1068 45.8816 27.4466 46.2245L13.3434 53.5573Z" fill="url(#paint1_radial)" fill-opacity="0.3" style="mix-blend-mode:overlay"/>
<path fill-rule="evenodd" clip-rule="evenodd" d="M13.3434 53.5573C11.6809 54.4185 9.73715 53.023 10.055 51.1928L12.7485 35.666C12.8748 34.9403 12.6303 34.1986 12.0965 33.6843L0.686804 22.6871C-0.657911 21.3912 0.0837198 19.1344 1.94187 18.8672L17.7117 16.6024C18.4493 16.4947 19.089 16.0362 19.4191 15.3743L26.4687 1.24705C27.2999 -0.415683 29.7001 -0.415683 30.5313 1.24705L37.585 15.3743C37.915 16.0362 38.5548 16.4947 39.2924 16.6024L55.0581 18.8672C56.9163 19.1344 57.6579 21.3912 56.3132 22.6871L44.9035 33.6843C44.3697 34.1986 44.1252 34.9403 44.2515 35.666L46.945 51.1928C47.2629 53.023 45.3232 54.4185 43.6606 53.5573L29.5534 46.2245C28.8932 45.8816 28.1068 45.8816 27.4466 46.2245L13.3434 53.5573Z" fill="url(#paint2_radial)" fill-opacity="0.4" style="mix-blend-mode:overlay"/>
<path fill-rule="evenodd" clip-rule="evenodd" d="M13.3434 53.5573C11.6809 54.4185 9.73715 53.023 10.055 51.1928L12.7485 35.666C12.8748 34.9403 12.6303 34.1986 12.0965 33.6843L0.686804 22.6871C-0.657911 21.3912 0.0837198 19.1344 1.94187 18.8672L17.7117 16.6024C18.4493 16.4947 19.089 16.0362 19.4191 15.3743L26.4687 1.24705C27.2999 -0.415683 29.7001 -0.415683 30.5313 1.24705L37.585 15.3743C37.915 16.0362 38.5548 16.4947 39.2924 16.6024L55.0581 18.8672C56.9163 19.1344 57.6579 21.3912 56.3132 22.6871L44.9035 33.6843C44.3697 34.1986 44.1252 34.9403 44.2515 35.666L46.945 51.1928C47.2629 53.023 45.3232 54.4185 43.6606 53.5573L29.5534 46.2245C28.8932 45.8816 28.1068 45.8816 27.4466 46.2245L13.3434 53.5573Z"/>
<defs>
<linearGradient id="paint0_linear" x1="16.5636" y1="2.37338" x2="39.2235" y2="51.8519" gradientUnits="userSpaceOnUse">
<stop stop-color="white" stop-opacity="0.5"/>
<stop offset="0.50369" stop-opacity="0.5"/>
<stop offset="1" stop-color="white" stop-opacity="0.5"/>
</linearGradient>
<radialGradient id="paint1_radial" cx="0" cy="0" r="1" gradientUnits="userSpaceOnUse" gradientTransform="translate(75.7276 103.221) scale(54.7377 53.8182)">
<stop stop-color="white"/>
<stop offset="1"/>
</radialGradient>
<radialGradient id="paint2_radial" cx="0" cy="0" r="1" gradientUnits="userSpaceOnUse" gradientTransform="translate(54.8413) scale(54.7377 53.8182)">
<stop stop-color="white"/>
<stop offset="1"/>
</radialGradient>
</defs>
</svg>
